<svg width="732" height="1411" viewBox="0 0 732 1411" class="keymap" xmlns="http://www.w3.org/2000/svg" xmlns:xlink="http://www.w3.org/1999/xlink">
<style>/* inherit to force styles through use tags */
svg path {
    fill: inherit;
}

/* font and background color specifications */
svg.keymap {
    font-family: SFMono-Regular,Consolas,Liberation Mono,Menlo,monospace;
    font-size: 14px;
    font-kerning: normal;
    text-rendering: optimizeLegibility;
    fill: #24292e;
}

/* default key styling */
rect.key {
    fill: #f6f8fa;
}

rect.key, rect.combo {
    stroke: #c9cccf;
    stroke-width: 1;
}

/* default key side styling, only used is draw_key_sides is set */
rect.side {
    filter: brightness(90%);
}

/* color accent for combo boxes */
rect.combo, rect.combo-separate {
    fill: #cdf;
}

/* color accent for held keys */
rect.held, rect.combo.held {
    fill: #fdd;
}

/* color accent for ghost (optional) keys */
rect.ghost, rect.combo.ghost {
    stroke-dasharray: 4, 4;
    stroke-width: 2;
}

text {
    text-anchor: middle;
    dominant-baseline: middle;
}

/* styling for layer labels */
text.label {
    font-weight: bold;
    text-anchor: start;
    stroke: white;
    stroke-width: 4;
    paint-order: stroke;
}

/* styling for optional footer */
text.footer {
    text-anchor: end;
    dominant-baseline: auto;
    stroke: white;
    stroke-width: 4;
    paint-order: stroke;
}

/* styling for combo tap, and key non-tap label text */
text.combo, text.hold, text.shifted, text.left, text.right {
    font-size: 11px;
}

text.hold {
    text-anchor: middle;
    dominant-baseline: auto;
}

text.shifted {
    text-anchor: middle;
    dominant-baseline: hanging;
}

text.left {
    text-anchor: start;
}

text.right {
    text-anchor: end;
}

text.layer-activator {
    text-decoration: underline;
}

/* styling for hold/shifted label text in combo box */
text.combo.hold, text.combo.shifted, text.combo.left, text.combo.right {
    font-size: 8px;
}

/* lighter symbol for transparent keys */
text.trans {
    fill: #7b7e81;
}

/* styling for combo dendrons */
path.combo {
    stroke-width: 1;
    stroke: gray;
    fill: none;
}

/* Start Tabler Icons Cleanup */
/* cannot use height/width with glyphs */
.icon-tabler > path {
    fill: inherit;
    stroke: inherit;
    stroke-width: 2;
}
/* hide tabler's default box */
.icon-tabler > path[stroke="none"][fill="none"] {
    visibility: hidden;
}
/* End Tabler Icons Cleanup */
</style>
<g transform="translate(30, 0)" class="layer-Base">
<text x="0" y="28" class="label" id="Base">Base:</text>
<g transform="translate(0, 56)">
<g transform="translate(28, 81)" class="key keypos-0">
<rect rx="6" ry="6" x="-26" y="-26" width="52" height="52" class="key"/>
<text x="0" y="0" class="key tap">
<tspan x="0" dy="-1.2em">&amp;esc_q</tspan><tspan x="0" dy="1.2em">ESC</tspan><tspan x="0" dy="1.2em">Q</tspan>
</text>
</g>
<g transform="translate(84, 46)" class="key keypos-1">
<rect rx="6" ry="6" x="-26" y="-26" width="52" height="52" class="key"/>
<text x="0" y="0" class="key tap">W</text>
</g>
<g transform="translate(140, 28)" class="key keypos-2">
<rect rx="6" ry="6" x="-26" y="-26" width="52" height="52" class="key"/>
<text x="0" y="0" class="key tap">E</text>
</g>
<g transform="translate(196, 44)" class="key keypos-3">
<rect rx="6" ry="6" x="-26" y="-26" width="52" height="52" class="key"/>
<text x="0" y="0" class="key tap">R</text>
</g>
<g transform="translate(252, 52)" class="key keypos-4">
<rect rx="6" ry="6" x="-26" y="-26" width="52" height="52" class="key"/>
<text x="0" y="0" class="key tap">T</text>
</g>
<g transform="translate(420, 52)" class="key keypos-5">
<rect rx="6" ry="6" x="-26" y="-26" width="52" height="52" class="key"/>
<text x="0" y="0" class="key tap">Y</text>
</g>
<g transform="translate(476, 44)" class="key keypos-6">
<rect rx="6" ry="6" x="-26" y="-26" width="52" height="52" class="key"/>
<text x="0" y="0" class="key tap">U</text>
</g>
<g transform="translate(532, 28)" class="key keypos-7">
<rect rx="6" ry="6" x="-26" y="-26" width="52" height="52" class="key"/>
<text x="0" y="0" class="key tap">I</text>
</g>
<g transform="translate(588, 46)" class="key keypos-8">
<rect rx="6" ry="6" x="-26" y="-26" width="52" height="52" class="key"/>
<text x="0" y="0" class="key tap">O</text>
</g>
<g transform="translate(644, 81)" class="key keypos-9">
<rect rx="6" ry="6" x="-26" y="-26" width="52" height="52" class="key"/>
<text x="0" y="0" class="key tap">
<tspan x="0" dy="-1.2em">&amp;bspc_p</tspan><tspan x="0" dy="1.2em">BSPC</tspan><tspan x="0" dy="1.2em">P</tspan>
</text>
</g>
<g transform="translate(28, 137)" class="key keypos-10">
<rect rx="6" ry="6" x="-26" y="-26" width="52" height="52" class="key"/>
<text x="0" y="0" class="key tap">
<tspan x="0" dy="-1.2em">&amp;lmt</tspan><tspan x="0" dy="1.2em">LCTRL</tspan><tspan x="0" dy="1.2em">A</tspan>
</text>
</g>
<g transform="translate(84, 102)" class="key keypos-11">
<rect rx="6" ry="6" x="-26" y="-26" width="52" height="52" class="key"/>
<text x="0" y="0" class="key tap">
<tspan x="0" dy="-1.2em">&amp;lmt</tspan><tspan x="0" dy="1.2em">LALT</tspan><tspan x="0" dy="1.2em">S</tspan>
</text>
</g>
<g transform="translate(140, 84)" class="key keypos-12">
<rect rx="6" ry="6" x="-26" y="-26" width="52" height="52" class="key"/>
<text x="0" y="0" class="key tap">
<tspan x="0" dy="-1.2em">&amp;lmt</tspan><tspan x="0" dy="1.2em">LGUI</tspan><tspan x="0" dy="1.2em">D</tspan>
</text>
</g>
<g transform="translate(196, 100)" class="key keypos-13">
<rect rx="6" ry="6" x="-26" y="-26" width="52" height="52" class="key"/>
<text x="0" y="0" class="key tap">
<tspan x="0" dy="-1.2em">&amp;lst</tspan><tspan x="0" dy="1.2em">LSHFT</tspan><tspan x="0" dy="1.2em">F</tspan>
</text>
</g>
<g transform="translate(252, 108)" class="key keypos-14">
<rect rx="6" ry="6" x="-26" y="-26" width="52" height="52" class="key"/>
<text x="0" y="0" class="key tap">G</text>
</g>
<g transform="translate(420, 108)" class="key keypos-15">
<rect rx="6" ry="6" x="-26" y="-26" width="52" height="52" class="key"/>
<text x="0" y="0" class="key tap">H</text>
</g>
<g transform="translate(476, 100)" class="key keypos-16">
<rect rx="6" ry="6" x="-26" y="-26" width="52" height="52" class="key"/>
<text x="0" y="0" class="key tap">
<tspan x="0" dy="-1.2em">&amp;rst</tspan><tspan x="0" dy="1.2em">RSHFT</tspan><tspan x="0" dy="1.2em">J</tspan>
</text>
</g>
<g transform="translate(532, 84)" class="key keypos-17">
<rect rx="6" ry="6" x="-26" y="-26" width="52" height="52" class="key"/>
<text x="0" y="0" class="key tap">
<tspan x="0" dy="-1.2em">&amp;rmt</tspan><tspan x="0" dy="1.2em">RGUI</tspan><tspan x="0" dy="1.2em">K</tspan>
</text>
</g>
<g transform="translate(588, 102)" class="key keypos-18">
<rect rx="6" ry="6" x="-26" y="-26" width="52" height="52" class="key"/>
<text x="0" y="0" class="key tap">
<tspan x="0" dy="-1.2em">&amp;rmt</tspan><tspan x="0" dy="1.2em">RALT</tspan><tspan x="0" dy="1.2em">L</tspan>
</text>
</g>
<g transform="translate(644, 137)" class="key keypos-19">
<rect rx="6" ry="6" x="-26" y="-26" width="52" height="52" class="key"/>
<text x="0" y="0" class="key tap">
<tspan x="0" dy="-1.2em">&amp;rmt</tspan><tspan x="0" dy="1.2em">RCTRL</tspan><tspan x="0" dy="1.2em">SEMI</tspan>
</text>
</g>
<g transform="translate(28, 193)" class="key keypos-20">
<rect rx="6" ry="6" x="-26" y="-26" width="52" height="52" class="key"/>
<text x="0" y="0" class="key tap">Z</text>
</g>
<g transform="translate(84, 158)" class="key keypos-21">
<rect rx="6" ry="6" x="-26" y="-26" width="52" height="52" class="key"/>
<text x="0" y="0" class="key tap">X</text>
</g>
<g transform="translate(140, 140)" class="key keypos-22">
<rect rx="6" ry="6" x="-26" y="-26" width="52" height="52" class="key"/>
<text x="0" y="0" class="key tap">C</text>
</g>
<g transform="translate(196, 156)" class="key keypos-23">
<rect rx="6" ry="6" x="-26" y="-26" width="52" height="52" class="key"/>
<text x="0" y="0" class="key tap">V</text>
</g>
<g transform="translate(252, 164)" class="key keypos-24">
<rect rx="6" ry="6" x="-26" y="-26" width="52" height="52" class="key"/>
<text x="0" y="0" class="key tap">B</text>
</g>
<g transform="translate(420, 164)" class="key keypos-25">
<rect rx="6" ry="6" x="-26" y="-26" width="52" height="52" class="key"/>
<text x="0" y="0" class="key tap">N</text>
</g>
<g transform="translate(476, 156)" class="key keypos-26">
<rect rx="6" ry="6" x="-26" y="-26" width="52" height="52" class="key"/>
<text x="0" y="0" class="key tap">M</text>
</g>
<g transform="translate(532, 140)" class="key keypos-27">
<rect rx="6" ry="6" x="-26" y="-26" width="52" height="52" class="key"/>
<text x="0" y="0" class="key tap">,</text>
</g>
<g transform="translate(588, 158)" class="key keypos-28">
<rect rx="6" ry="6" x="-26" y="-26" width="52" height="52" class="key"/>
<text x="0" y="0" class="key tap">.</text>
</g>
<g transform="translate(644, 193)" class="key keypos-29">
<rect rx="6" ry="6" x="-26" y="-26" width="52" height="52" class="key"/>
<text x="0" y="0" class="key tap">/</text>
</g>
<g transform="translate(221, 221) rotate(15.0)" class="key keypos-30">
<rect rx="6" ry="6" x="-26" y="-26" width="52" height="52" class="key"/>
<text x="0" y="0" class="key tap">TAB</text>
<a href="#Symbols">
<text x="0" y="24" class="key hold layer-activator">Symbols</text>
</a></g>
<g transform="translate(279, 245) rotate(30.0)" class="key keypos-31">
<rect rx="6" ry="6" x="-26" y="-26" width="52" height="52" class="key"/>
<text x="0" y="0" class="key tap">RET</text>
<text x="0" y="24" class="key hold"><tspan style="font-size: 88%">Ctl+LALT</tspan></text>
</g>
<g transform="translate(393, 245) rotate(-30.0)" class="key keypos-32">
<rect rx="6" ry="6" x="-26" y="-26" width="52" height="52" class="key"/>
<text x="0" y="0" class="key tap">SPACE</text>
<text x="0" y="24" class="key hold">RSHFT</text>
</g>
<g transform="translate(451, 221) rotate(-15.0)" class="key keypos-33">
<rect rx="6" ry="6" x="-26" y="-26" width="52" height="52" class="key"/>
<text x="0" y="0" class="key tap">BSPC</text>
<a href="#Numbers">
<text x="0" y="24" class="key hold layer-activator">Numbers</text>
</a></g>
<g class="combo combopos-0">
<path d="M140,66 l-93,12" class="combo"/>
<path d="M140,66 l93,-12" class="combo"/>
<rect rx="6" ry="6" x="126" y="53" width="28" height="26" class="combo"/>
<text x="140" y="66" class="combo tap"><tspan style="font-size: 64%">&amp;studio_un…</tspan></text>
</g>
<g class="combo combopos-1">
<path d="M336,221 l-96,0" class="combo"/>
<path d="M336,221 l96,0" class="combo"/>
<rect rx="6" ry="6" x="322" y="208" width="28" height="26" class="combo"/>
<a href="#Function">
<text x="336" y="221" class="combo tap layer-activator"><tspan style="font-size: 88%">Function</tspan></text>
</a></g>
<g class="combo combopos-2">
<rect rx="6" ry="6" x="434" y="35" width="28" height="26" class="combo"/>
<text x="448" y="48" class="combo tap">
<tspan x="448" dy="-0.6em">VOL</tspan><tspan x="448" dy="1.2em">UP</tspan>
</text>
</g>
<g class="combo combopos-3">
<rect rx="6" ry="6" x="434" y="91" width="28" height="26" class="combo"/>
<text x="448" y="104" class="combo tap">
<tspan x="448" dy="-0.6em">VOL</tspan><tspan x="448" dy="1.2em">DN</tspan>
</text>
</g>
<g class="combo combopos-4">
<rect rx="6" ry="6" x="602" y="51" width="28" height="26" class="combo"/>
<text x="616" y="64" class="combo tap"><tspan style="font-size: 78%">BACKSPACE</tspan></text>
</g>
<g class="combo combopos-5">
<rect rx="6" ry="6" x="42" y="51" width="28" height="26" class="combo"/>
<text x="56" y="64" class="combo tap">ESCAPE</text>
</g>
<g class="combo combopos-6">
<rect rx="6" ry="6" x="42" y="107" width="28" height="26" class="combo"/>
<text x="56" y="120" class="combo tap">TAB</text>
</g>
<g class="combo combopos-7">
<rect rx="6" ry="6" x="42" y="163" width="28" height="26" class="combo"/>
<text x="56" y="176" class="combo tap">Ctl+Z</text>
</g>
<g class="combo combopos-8">
<rect rx="6" ry="6" x="98" y="136" width="28" height="26" class="combo"/>
<text x="112" y="149" class="combo tap">Ctl+Z</text>
</g>
<g class="combo combopos-9">
<rect rx="6" ry="6" x="154" y="135" width="28" height="26" class="combo"/>
<text x="168" y="148" class="combo tap">Ctl+Z</text>
</g>
<g class="combo combopos-10">
<rect rx="6" ry="6" x="210" y="147" width="28" height="26" class="combo"/>
<text x="224" y="160" class="combo tap">Ctl+Z</text>
</g>
<g class="combo combopos-11">
<rect rx="6" ry="6" x="42" y="135" width="28" height="26" class="combo"/>
<text x="56" y="148" class="combo tap">Ctl+Z</text>
</g>
</g>
</g>
<g transform="translate(30, 339)" class="layer-Numbers">
<text x="0" y="28" class="label" id="Numbers">Numbers:</text>
<g transform="translate(0, 56)">
<g transform="translate(28, 81)" class="key keypos-0">
<rect rx="6" ry="6" x="-26" y="-26" width="52" height="52" class="key"/>
<text x="0" y="0" class="key tap">1</text>
</g>
<g transform="translate(84, 46)" class="key keypos-1">
<rect rx="6" ry="6" x="-26" y="-26" width="52" height="52" class="key"/>
<text x="0" y="0" class="key tap">2</text>
</g>
<g transform="translate(140, 28)" class="key keypos-2">
<rect rx="6" ry="6" x="-26" y="-26" width="52" height="52" class="key"/>
<text x="0" y="0" class="key tap">3</text>
</g>
<g transform="translate(196, 44)" class="key keypos-3">
<rect rx="6" ry="6" x="-26" y="-26" width="52" height="52" class="key"/>
<text x="0" y="0" class="key tap">4</text>
</g>
<g transform="translate(252, 52)" class="key keypos-4">
<rect rx="6" ry="6" x="-26" y="-26" width="52" height="52" class="key"/>
<text x="0" y="0" class="key tap">5</text>
</g>
<g transform="translate(420, 52)" class="key keypos-5">
<rect rx="6" ry="6" x="-26" y="-26" width="52" height="52" class="key"/>
<text x="0" y="0" class="key tap">6</text>
</g>
<g transform="translate(476, 44)" class="key keypos-6">
<rect rx="6" ry="6" x="-26" y="-26" width="52" height="52" class="key"/>
<text x="0" y="0" class="key tap">7</text>
</g>
<g transform="translate(532, 28)" class="key keypos-7">
<rect rx="6" ry="6" x="-26" y="-26" width="52" height="52" class="key"/>
<text x="0" y="0" class="key tap">8</text>
</g>
<g transform="translate(588, 46)" class="key keypos-8">
<rect rx="6" ry="6" x="-26" y="-26" width="52" height="52" class="key"/>
<text x="0" y="0" class="key tap">9</text>
</g>
<g transform="translate(644, 81)" class="key keypos-9">
<rect rx="6" ry="6" x="-26" y="-26" width="52" height="52" class="key"/>
<text x="0" y="0" class="key tap">0</text>
</g>
<g transform="translate(28, 137)" class="key keypos-10">
<rect rx="6" ry="6" x="-26" y="-26" width="52" height="52" class="key"/>
<text x="0" y="0" class="key tap">F1</text>
</g>
<g transform="translate(84, 102)" class="key keypos-11">
<rect rx="6" ry="6" x="-26" y="-26" width="52" height="52" class="key"/>
<text x="0" y="0" class="key tap">F2</text>
</g>
<g transform="translate(140, 84)" class="key keypos-12">
<rect rx="6" ry="6" x="-26" y="-26" width="52" height="52" class="key"/>
<text x="0" y="0" class="key tap">F3</text>
</g>
<g transform="translate(196, 100)" class="key keypos-13">
<rect rx="6" ry="6" x="-26" y="-26" width="52" height="52" class="key"/>
<text x="0" y="0" class="key tap">F4</text>
</g>
<g transform="translate(252, 108)" class="key keypos-14">
<rect rx="6" ry="6" x="-26" y="-26" width="52" height="52" class="key"/>
<text x="0" y="0" class="key tap">F5</text>
</g>
<g transform="translate(420, 108)" class="key keypos-15">
<rect rx="6" ry="6" x="-26" y="-26" width="52" height="52" class="key"/>
<text x="0" y="0" class="key tap">LEFT</text>
</g>
<g transform="translate(476, 100)" class="key keypos-16">
<rect rx="6" ry="6" x="-26" y="-26" width="52" height="52" class="key"/>
<text x="0" y="0" class="key tap">DOWN</text>
</g>
<g transform="translate(532, 84)" class="key keypos-17">
<rect rx="6" ry="6" x="-26" y="-26" width="52" height="52" class="key"/>
<text x="0" y="0" class="key tap">UP</text>
</g>
<g transform="translate(588, 102)" class="key keypos-18">
<rect rx="6" ry="6" x="-26" y="-26" width="52" height="52" class="key"/>
<text x="0" y="0" class="key tap">RIGHT</text>
</g>
<g transform="translate(644, 137)" class="key keypos-19">
<rect rx="6" ry="6" x="-26" y="-26" width="52" height="52" class="key"/>
<text x="0" y="0" class="key tap">TAB</text>
</g>
<g transform="translate(28, 193)" class="key keypos-20">
<rect rx="6" ry="6" x="-26" y="-26" width="52" height="52" class="key"/>
<text x="0" y="0" class="key tap">F6</text>
</g>
<g transform="translate(84, 158)" class="key keypos-21">
<rect rx="6" ry="6" x="-26" y="-26" width="52" height="52" class="key"/>
<text x="0" y="0" class="key tap">F7</text>
</g>
<g transform="translate(140, 140)" class="key keypos-22">
<rect rx="6" ry="6" x="-26" y="-26" width="52" height="52" class="key"/>
<text x="0" y="0" class="key tap">F8</text>
</g>
<g transform="translate(196, 156)" class="key keypos-23">
<rect rx="6" ry="6" x="-26" y="-26" width="52" height="52" class="key"/>
<text x="0" y="0" class="key tap">F9</text>
</g>
<g transform="translate(252, 164)" class="key keypos-24">
<rect rx="6" ry="6" x="-26" y="-26" width="52" height="52" class="key"/>
<text x="0" y="0" class="key tap">F10</text>
</g>
<g transform="translate(420, 164)" class="key keypos-25">
<rect rx="6" ry="6" x="-26" y="-26" width="52" height="52" class="key"/>
<text x="0" y="0" class="key tap">HOME</text>
</g>
<g transform="translate(476, 156)" class="key keypos-26">
<rect rx="6" ry="6" x="-26" y="-26" width="52" height="52" class="key"/>
<text x="0" y="0" class="key tap">
<tspan x="0" dy="-0.6em">PG</tspan><tspan x="0" dy="1.2em">DN</tspan>
</text>
</g>
<g transform="translate(532, 140)" class="key keypos-27">
<rect rx="6" ry="6" x="-26" y="-26" width="52" height="52" class="key"/>
<text x="0" y="0" class="key tap">
<tspan x="0" dy="-0.6em">PG</tspan><tspan x="0" dy="1.2em">UP</tspan>
</text>
</g>
<g transform="translate(588, 158)" class="key keypos-28">
<rect rx="6" ry="6" x="-26" y="-26" width="52" height="52" class="key"/>
<text x="0" y="0" class="key tap">END</text>
</g>
<g transform="translate(644, 193)" class="key keypos-29">
<rect rx="6" ry="6" x="-26" y="-26" width="52" height="52" class="key"/>
<text x="0" y="0" class="key tap">DEL</text>
</g>
<g transform="translate(221, 221) rotate(15.0)" class="key trans keypos-30">
<rect rx="6" ry="6" x="-26" y="-26" width="52" height="52" class="key trans"/>
<text x="0" y="0" class="key trans tap">▽</text>
</g>
<g transform="translate(279, 245) rotate(30.0)" class="key keypos-31">
<rect rx="6" ry="6" x="-26" y="-26" width="52" height="52" class="key"/>
<text x="0" y="0" class="key tap">F11</text>
</g>
<g transform="translate(393, 245) rotate(-30.0)" class="key keypos-32">
<rect rx="6" ry="6" x="-26" y="-26" width="52" height="52" class="key"/>
<text x="0" y="0" class="key tap">F12</text>
</g>
<g transform="translate(451, 221) rotate(-15.0)" class="key held keypos-33">
<rect rx="6" ry="6" x="-26" y="-26" width="52" height="52" class="key held"/>
</g>
<g class="combo combopos-0">
<path d="M336,221 l-96,0" class="combo"/>
<path d="M336,221 l96,0" class="combo"/>
<rect rx="6" ry="6" x="322" y="208" width="28" height="26" class="combo"/>
<a href="#Function">
<text x="336" y="221" class="combo tap layer-activator"><tspan style="font-size: 88%">Function</tspan></text>
</a></g>
<g class="combo combopos-1">
<rect rx="6" ry="6" x="434" y="91" width="28" height="26" class="combo"/>
<text x="448" y="104" class="combo tap">
<tspan x="448" dy="-0.6em">VOL</tspan><tspan x="448" dy="1.2em">DN</tspan>
</text>
</g>
<g class="combo combopos-2">
<rect rx="6" ry="6" x="602" y="51" width="28" height="26" class="combo"/>
<text x="616" y="64" class="combo tap"><tspan style="font-size: 78%">BACKSPACE</tspan></text>
</g>
<g class="combo combopos-3">
<rect rx="6" ry="6" x="42" y="51" width="28" height="26" class="combo"/>
<text x="56" y="64" class="combo tap">ESCAPE</text>
</g>
<g class="combo combopos-4">
<rect rx="6" ry="6" x="42" y="107" width="28" height="26" class="combo"/>
<text x="56" y="120" class="combo tap">TAB</text>
</g>
<g class="combo combopos-5">
<rect rx="6" ry="6" x="42" y="163" width="28" height="26" class="combo"/>
<text x="56" y="176" class="combo tap">Ctl+Z</text>
</g>
<g class="combo combopos-6">
<rect rx="6" ry="6" x="98" y="136" width="28" height="26" class="combo"/>
<text x="112" y="149" class="combo tap">Ctl+Z</text>
</g>
<g class="combo combopos-7">
<rect rx="6" ry="6" x="154" y="135" width="28" height="26" class="combo"/>
<text x="168" y="148" class="combo tap">Ctl+Z</text>
</g>
<g class="combo combopos-8">
<rect rx="6" ry="6" x="210" y="147" width="28" height="26" class="combo"/>
<text x="224" y="160" class="combo tap">Ctl+Z</text>
</g>
<g class="combo combopos-9">
<rect rx="6" ry="6" x="42" y="135" width="28" height="26" class="combo"/>
<text x="56" y="148" class="combo tap">Ctl+Z</text>
</g>
</g>
</g>
<g transform="translate(30, 678)" class="layer-Symbols">
<text x="0" y="28" class="label" id="Symbols">Symbols:</text>
<g transform="translate(0, 56)">
<g transform="translate(28, 81)" class="key keypos-0">
<rect rx="6" ry="6" x="-26" y="-26" width="52" height="52" class="key"/>
<text x="0" y="0" class="key tap">!</text>
</g>
<g transform="translate(84, 46)" class="key keypos-1">
<rect rx="6" ry="6" x="-26" y="-26" width="52" height="52" class="key"/>
<text x="0" y="0" class="key tap">@</text>
</g>
<g transform="translate(140, 28)" class="key keypos-2">
<rect rx="6" ry="6" x="-26" y="-26" width="52" height="52" class="key"/>
<text x="0" y="0" class="key tap">#</text>
</g>
<g transform="translate(196, 44)" class="key keypos-3">
<rect rx="6" ry="6" x="-26" y="-26" width="52" height="52" class="key"/>
<text x="0" y="0" class="key tap">$</text>
</g>
<g transform="translate(252, 52)" class="key keypos-4">
<rect rx="6" ry="6" x="-26" y="-26" width="52" height="52" class="key"/>
<text x="0" y="0" class="key tap">%</text>
</g>
<g transform="translate(420, 52)" class="key keypos-5">
<rect rx="6" ry="6" x="-26" y="-26" width="52" height="52" class="key"/>
<text x="0" y="0" class="key tap">^</text>
</g>
<g transform="translate(476, 44)" class="key keypos-6">
<rect rx="6" ry="6" x="-26" y="-26" width="52" height="52" class="key"/>
<text x="0" y="0" class="key tap">&amp;</text>
</g>
<g transform="translate(532, 28)" class="key keypos-7">
<rect rx="6" ry="6" x="-26" y="-26" width="52" height="52" class="key"/>
<text x="0" y="0" class="key tap">*</text>
</g>
<g transform="translate(588, 46)" class="key keypos-8">
<rect rx="6" ry="6" x="-26" y="-26" width="52" height="52" class="key"/>
<text x="0" y="0" class="key tap">(</text>
</g>
<g transform="translate(644, 81)" class="key keypos-9">
<rect rx="6" ry="6" x="-26" y="-26" width="52" height="52" class="key"/>
<text x="0" y="0" class="key tap">)</text>
</g>
<g transform="translate(28, 137)" class="key keypos-10">
<rect rx="6" ry="6" x="-26" y="-26" width="52" height="52" class="key"/>
<text x="0" y="0" class="key tap">`</text>
</g>
<g transform="translate(84, 102)" class="key keypos-11">
<rect rx="6" ry="6" x="-26" y="-26" width="52" height="52" class="key"/>
<text x="0" y="0" class="key tap">~</text>
</g>
<g transform="translate(140, 84)" class="key keypos-12">
<rect rx="6" ry="6" x="-26" y="-26" width="52" height="52" class="key"/>
<text x="0" y="0" class="key tap">&#x27;</text>
</g>
<g transform="translate(196, 100)" class="key keypos-13">
<rect rx="6" ry="6" x="-26" y="-26" width="52" height="52" class="key"/>
<text x="0" y="0" class="key tap">&quot;</text>
</g>
<g transform="translate(252, 108)" class="key trans keypos-14">
<rect rx="6" ry="6" x="-26" y="-26" width="52" height="52" class="key trans"/>
<text x="0" y="0" class="key trans tap">▽</text>
</g>
<g transform="translate(420, 108)" class="key keypos-15">
<rect rx="6" ry="6" x="-26" y="-26" width="52" height="52" class="key"/>
<text x="0" y="0" class="key tap">-</text>
</g>
<g transform="translate(476, 100)" class="key keypos-16">
<rect rx="6" ry="6" x="-26" y="-26" width="52" height="52" class="key"/>
<text x="0" y="0" class="key tap">=</text>
</g>
<g transform="translate(532, 84)" class="key keypos-17">
<rect rx="6" ry="6" x="-26" y="-26" width="52" height="52" class="key"/>
<text x="0" y="0" class="key tap">[</text>
</g>
<g transform="translate(588, 102)" class="key keypos-18">
<rect rx="6" ry="6" x="-26" y="-26" width="52" height="52" class="key"/>
<text x="0" y="0" class="key tap">]</text>
</g>
<g transform="translate(644, 137)" class="key keypos-19">
<rect rx="6" ry="6" x="-26" y="-26" width="52" height="52" class="key"/>
<text x="0" y="0" class="key tap">\</text>
</g>
<g transform="translate(28, 193)" class="key trans keypos-20">
<rect rx="6" ry="6" x="-26" y="-26" width="52" height="52" class="key trans"/>
<text x="0" y="0" class="key trans tap">▽</text>
</g>
<g transform="translate(84, 158)" class="key trans keypos-21">
<rect rx="6" ry="6" x="-26" y="-26" width="52" height="52" class="key trans"/>
<text x="0" y="0" class="key trans tap">▽</text>
</g>
<g transform="translate(140, 140)" class="key trans keypos-22">
<rect rx="6" ry="6" x="-26" y="-26" width="52" height="52" class="key trans"/>
<text x="0" y="0" class="key trans tap">▽</text>
</g>
<g transform="translate(196, 156)" class="key trans keypos-23">
<rect rx="6" ry="6" x="-26" y="-26" width="52" height="52" class="key trans"/>
<text x="0" y="0" class="key trans tap">▽</text>
</g>
<g transform="translate(252, 164)" class="key trans keypos-24">
<rect rx="6" ry="6" x="-26" y="-26" width="52" height="52" class="key trans"/>
<text x="0" y="0" class="key trans tap">▽</text>
</g>
<g transform="translate(420, 164)" class="key keypos-25">
<rect rx="6" ry="6" x="-26" y="-26" width="52" height="52" class="key"/>
<text x="0" y="0" class="key tap">_</text>
</g>
<g transform="translate(476, 156)" class="key keypos-26">
<rect rx="6" ry="6" x="-26" y="-26" width="52" height="52" class="key"/>
<text x="0" y="0" class="key tap">+</text>
</g>
<g transform="translate(532, 140)" class="key keypos-27">
<rect rx="6" ry="6" x="-26" y="-26" width="52" height="52" class="key"/>
<text x="0" y="0" class="key tap">{</text>
</g>
<g transform="translate(588, 158)" class="key keypos-28">
<rect rx="6" ry="6" x="-26" y="-26" width="52" height="52" class="key"/>
<text x="0" y="0" class="key tap">}</text>
</g>
<g transform="translate(644, 193)" class="key keypos-29">
<rect rx="6" ry="6" x="-26" y="-26" width="52" height="52" class="key"/>
<text x="0" y="0" class="key tap">|</text>
</g>
<g transform="translate(221, 221) rotate(15.0)" class="key held keypos-30">
<rect rx="6" ry="6" x="-26" y="-26" width="52" height="52" class="key held"/>
</g>
<g transform="translate(279, 245) rotate(30.0)" class="key keypos-31">
<rect rx="6" ry="6" x="-26" y="-26" width="52" height="52" class="key"/>
<text x="0" y="0" class="key tap">ESC</text>
</g>
<g transform="translate(393, 245) rotate(-30.0)" class="key trans keypos-32">
<rect rx="6" ry="6" x="-26" y="-26" width="52" height="52" class="key trans"/>
<text x="0" y="0" class="key trans tap">▽</text>
</g>
<g transform="translate(451, 221) rotate(-15.0)" class="key trans keypos-33">
<rect rx="6" ry="6" x="-26" y="-26" width="52" height="52" class="key trans"/>
<text x="0" y="0" class="key trans tap">▽</text>
</g>
<g class="combo combopos-0">
<path d="M336,221 l-96,0" class="combo"/>
<path d="M336,221 l96,0" class="combo"/>
<rect rx="6" ry="6" x="322" y="208" width="28" height="26" class="combo"/>
<a href="#Function">
<text x="336" y="221" class="combo tap layer-activator"><tspan style="font-size: 88%">Function</tspan></text>
</a></g>
<g class="combo combopos-1">
<rect rx="6" ry="6" x="434" y="91" width="28" height="26" class="combo"/>
<text x="448" y="104" class="combo tap">
<tspan x="448" dy="-0.6em">VOL</tspan><tspan x="448" dy="1.2em">DN</tspan>
</text>
</g>
<g class="combo combopos-2">
<rect rx="6" ry="6" x="602" y="51" width="28" height="26" class="combo"/>
<text x="616" y="64" class="combo tap"><tspan style="font-size: 78%">BACKSPACE</tspan></text>
</g>
<g class="combo combopos-3">
<rect rx="6" ry="6" x="42" y="51" width="28" height="26" class="combo"/>
<text x="56" y="64" class="combo tap">ESCAPE</text>
</g>
<g class="combo combopos-4">
<rect rx="6" ry="6" x="42" y="107" width="28" height="26" class="combo"/>
<text x="56" y="120" class="combo tap">TAB</text>
</g>
<g class="combo combopos-5">
<rect rx="6" ry="6" x="42" y="163" width="28" height="26" class="combo"/>
<text x="56" y="176" class="combo tap">Ctl+Z</text>
</g>
<g class="combo combopos-6">
<rect rx="6" ry="6" x="98" y="136" width="28" height="26" class="combo"/>
<text x="112" y="149" class="combo tap">Ctl+Z</text>
</g>
<g class="combo combopos-7">
<rect rx="6" ry="6" x="154" y="135" width="28" height="26" class="combo"/>
<text x="168" y="148" class="combo tap">Ctl+Z</text>
</g>
<g class="combo combopos-8">
<rect rx="6" ry="6" x="210" y="147" width="28" height="26" class="combo"/>
<text x="224" y="160" class="combo tap">Ctl+Z</text>
</g>
<g class="combo combopos-9">
<rect rx="6" ry="6" x="42" y="135" width="28" height="26" class="combo"/>
<text x="56" y="148" class="combo tap">Ctl+Z</text>
</g>
</g>
</g>
<g transform="translate(30, 1016)" class="layer-Function">
<text x="0" y="28" class="label" id="Function">Function:</text>
<g transform="translate(0, 56)">
<g transform="translate(28, 81)" class="key keypos-0">
<rect rx="6" ry="6" x="-26" y="-26" width="52" height="52" class="key"/>
<text x="0" y="0" class="key tap"><tspan style="font-size: 70%">&amp;sys_reset</tspan></text>
</g>
<g transform="translate(84, 46)" class="key trans keypos-1">
<rect rx="6" ry="6" x="-26" y="-26" width="52" height="52" class="key trans"/>
<text x="0" y="0" class="key trans tap">▽</text>
</g>
<g transform="translate(140, 28)" class="key trans keypos-2">
<rect rx="6" ry="6" x="-26" y="-26" width="52" height="52" class="key trans"/>
<text x="0" y="0" class="key trans tap">▽</text>
</g>
<g transform="translate(196, 44)" class="key keypos-3">
<rect rx="6" ry="6" x="-26" y="-26" width="52" height="52" class="key"/>
<text x="0" y="0" class="key tap">
<tspan x="0" dy="-0.6em">OUT</tspan><tspan x="0" dy="1.2em">BLE</tspan>
</text>
</g>
<g transform="translate(252, 52)" class="key keypos-4">
<rect rx="6" ry="6" x="-26" y="-26" width="52" height="52" class="key"/>
<text x="0" y="0" class="key tap">BT</text>
<text x="0" y="24" class="key hold">0</text>
</g>
<g transform="translate(420, 52)" class="key trans keypos-5">
<rect rx="6" ry="6" x="-26" y="-26" width="52" height="52" class="key trans"/>
<text x="0" y="0" class="key trans tap">▽</text>
</g>
<g transform="translate(476, 44)" class="key trans keypos-6">
<rect rx="6" ry="6" x="-26" y="-26" width="52" height="52" class="key trans"/>
<text x="0" y="0" class="key trans tap">▽</text>
</g>
<g transform="translate(532, 28)" class="key trans keypos-7">
<rect rx="6" ry="6" x="-26" y="-26" width="52" height="52" class="key trans"/>
<text x="0" y="0" class="key trans tap">▽</text>
</g>
<g transform="translate(588, 46)" class="key trans keypos-8">
<rect rx="6" ry="6" x="-26" y="-26" width="52" height="52" class="key trans"/>
<text x="0" y="0" class="key trans tap">▽</text>
</g>
<g transform="translate(644, 81)" class="key trans keypos-9">
<rect rx="6" ry="6" x="-26" y="-26" width="52" height="52" class="key trans"/>
<text x="0" y="0" class="key trans tap">▽</text>
</g>
<g transform="translate(28, 137)" class="key keypos-10">
<rect rx="6" ry="6" x="-26" y="-26" width="52" height="52" class="key"/>
<text x="0" y="0" class="key tap"><tspan style="font-size: 64%">&amp;bootloader</tspan></text>
</g>
<g transform="translate(84, 102)" class="key trans keypos-11">
<rect rx="6" ry="6" x="-26" y="-26" width="52" height="52" class="key trans"/>
<text x="0" y="0" class="key trans tap">▽</text>
</g>
<g transform="translate(140, 84)" class="key trans keypos-12">
<rect rx="6" ry="6" x="-26" y="-26" width="52" height="52" class="key trans"/>
<text x="0" y="0" class="key trans tap">▽</text>
</g>
<g transform="translate(196, 100)" class="key keypos-13">
<rect rx="6" ry="6" x="-26" y="-26" width="52" height="52" class="key"/>
<text x="0" y="0" class="key tap">
<tspan x="0" dy="-0.6em">OUT</tspan><tspan x="0" dy="1.2em">USB</tspan>
</text>
</g>
<g transform="translate(252, 108)" class="key keypos-14">
<rect rx="6" ry="6" x="-26" y="-26" width="52" height="52" class="key"/>
<text x="0" y="0" class="key tap">BT</text>
<text x="0" y="24" class="key hold">1</text>
</g>
<g transform="translate(420, 108)" class="key trans keypos-15">
<rect rx="6" ry="6" x="-26" y="-26" width="52" height="52" class="key trans"/>
<text x="0" y="0" class="key trans tap">▽</text>
</g>
<g transform="translate(476, 100)" class="key trans keypos-16">
<rect rx="6" ry="6" x="-26" y="-26" width="52" height="52" class="key trans"/>
<text x="0" y="0" class="key trans tap">▽</text>
</g>
<g transform="translate(532, 84)" class="key trans keypos-17">
<rect rx="6" ry="6" x="-26" y="-26" width="52" height="52" class="key trans"/>
<text x="0" y="0" class="key trans tap">▽</text>
</g>
<g transform="translate(588, 102)" class="key trans keypos-18">
<rect rx="6" ry="6" x="-26" y="-26" width="52" height="52" class="key trans"/>
<text x="0" y="0" class="key trans tap">▽</text>
</g>
<g transform="translate(644, 137)" class="key keypos-19">
<rect rx="6" ry="6" x="-26" y="-26" width="52" height="52" class="key"/>
<text x="0" y="0" class="key tap"><tspan style="font-size: 64%">&amp;bootloader</tspan></text>
</g>
<g transform="translate(28, 193)" class="key trans keypos-20">
<rect rx="6" ry="6" x="-26" y="-26" width="52" height="52" class="key trans"/>
<text x="0" y="0" class="key trans tap">▽</text>
</g>
<g transform="translate(84, 158)" class="key trans keypos-21">
<rect rx="6" ry="6" x="-26" y="-26" width="52" height="52" class="key trans"/>
<text x="0" y="0" class="key trans tap">▽</text>
</g>
<g transform="translate(140, 140)" class="key trans keypos-22">
<rect rx="6" ry="6" x="-26" y="-26" width="52" height="52" class="key trans"/>
<text x="0" y="0" class="key trans tap">▽</text>
</g>
<g transform="translate(196, 156)" class="key keypos-23">
<rect rx="6" ry="6" x="-26" y="-26" width="52" height="52" class="key"/>
<text x="0" y="0" class="key tap">
<tspan x="0" dy="-0.6em">BT</tspan><tspan x="0" dy="1.2em">CLR</tspan>
</text>
</g>
<g transform="translate(252, 164)" class="key keypos-24">
<rect rx="6" ry="6" x="-26" y="-26" width="52" height="52" class="key"/>
<text x="0" y="0" class="key tap">BT</text>
<text x="0" y="24" class="key hold">2</text>
</g>
<g transform="translate(420, 164)" class="key keypos-25">
<rect rx="6" ry="6" x="-26" y="-26" width="52" height="52" class="key"/>
<text x="0" y="0" class="key tap">MUTE</text>
</g>
<g transform="translate(476, 156)" class="key keypos-26">
<rect rx="6" ry="6" x="-26" y="-26" width="52" height="52" class="key"/>
<text x="0" y="0" class="key tap">PP</text>
</g>
<g transform="translate(532, 140)" class="key keypos-27">
<rect rx="6" ry="6" x="-26" y="-26" width="52" height="52" class="key"/>
<text x="0" y="0" class="key tap">PREV</text>
</g>
<g transform="translate(588, 158)" class="key keypos-28">
<rect rx="6" ry="6" x="-26" y="-26" width="52" height="52" class="key"/>
<text x="0" y="0" class="key tap">NEXT</text>
</g>
<g transform="translate(644, 193)" class="key trans keypos-29">
<rect rx="6" ry="6" x="-26" y="-26" width="52" height="52" class="key trans"/>
<text x="0" y="0" class="key trans tap">▽</text>
</g>
<g transform="translate(221, 221) rotate(15.0)" class="key held keypos-30">
<rect rx="6" ry="6" x="-26" y="-26" width="52" height="52" class="key held"/>
</g>
<g transform="translate(279, 245) rotate(30.0)" class="key trans keypos-31">
<rect rx="6" ry="6" x="-26" y="-26" width="52" height="52" class="key trans"/>
<text x="0" y="0" class="key trans tap">▽</text>
</g>
<g transform="translate(393, 245) rotate(-30.0)" class="key trans keypos-32">
<rect rx="6" ry="6" x="-26" y="-26" width="52" height="52" class="key trans"/>
<text x="0" y="0" class="key trans tap">▽</text>
</g>
<g transform="translate(451, 221) rotate(-15.0)" class="key held keypos-33">
<rect rx="6" ry="6" x="-26" y="-26" width="52" height="52" class="key held"/>
</g>
<g class="combo combopos-0">
<path d="M336,221 l-96,0" class="combo"/>
<path d="M336,221 l96,0" class="combo"/>
<rect rx="6" ry="6" x="322" y="208" width="28" height="26" class="combo"/>
<a href="#Function">
<text x="336" y="221" class="combo tap layer-activator"><tspan style="font-size: 88%">Function</tspan></text>
</a></g>
<g class="combo combopos-1">
<rect rx="6" ry="6" x="434" y="91" width="28" height="26" class="combo"/>
<text x="448" y="104" class="combo tap">
<tspan x="448" dy="-0.6em">VOL</tspan><tspan x="448" dy="1.2em">DN</tspan>
</text>
</g>
<g class="combo combopos-2">
<rect rx="6" ry="6" x="602" y="51" width="28" height="26" class="combo"/>
<text x="616" y="64" class="combo tap"><tspan style="font-size: 78%">BACKSPACE</tspan></text>
</g>
<g class="combo combopos-3">
<rect rx="6" ry="6" x="42" y="51" width="28" height="26" class="combo"/>
<text x="56" y="64" class="combo tap">ESCAPE</text>
</g>
<g class="combo combopos-4">
<rect rx="6" ry="6" x="42" y="107" width="28" height="26" class="combo"/>
<text x="56" y="120" class="combo tap">TAB</text>
</g>
<g class="combo combopos-5">
<rect rx="6" ry="6" x="42" y="163" width="28" height="26" class="combo"/>
<text x="56" y="176" class="combo tap">Ctl+Z</text>
</g>
<g class="combo combopos-6">
<rect rx="6" ry="6" x="98" y="136" width="28" height="26" class="combo"/>
<text x="112" y="149" class="combo tap">Ctl+Z</text>
</g>
<g class="combo combopos-7">
<rect rx="6" ry="6" x="154" y="135" width="28" height="26" class="combo"/>
<text x="168" y="148" class="combo tap">Ctl+Z</text>
</g>
<g class="combo combopos-8">
<rect rx="6" ry="6" x="210" y="147" width="28" height="26" class="combo"/>
<text x="224" y="160" class="combo tap">Ctl+Z</text>
</g>
<g class="combo combopos-9">
<rect rx="6" ry="6" x="42" y="135" width="28" height="26" class="combo"/>
<text x="56" y="148" class="combo tap">Ctl+Z</text>
</g>
</g>
</g>
</svg>
